<?xml version="1.0" standalone="no"?>
<!DOCTYPE svg PUBLIC "-//W3C//DTD SVG 20010904//EN"
 "http://www.w3.org/TR/2001/REC-SVG-20010904/DTD/svg10.dtd">
<svg version="1.0" xmlns="http://www.w3.org/2000/svg"
 width="60.000000pt" height="60.000000pt" viewBox="0 0 60.000000 60.000000"
 preserveAspectRatio="xMidYMid meet">
<metadata>
Created by potrace 1.13, written by Peter Selinger 2001-2015
</metadata>
<g transform="translate(0.000000,60.000000) scale(0.100000,-0.100000)"
fill="#000000" stroke="none">
<path d="M130 537 c0 -2 -18 -106 -40 -231 -22 -125 -40 -231 -40 -237 0 -5
70 -9 168 -9 245 0 242 -3 292 281 16 96 30 181 30 187 0 9 -53 12 -205 12
-113 0 -205 -1 -205 -3z m285 -59 c-3 -13 -18 -97 -35 -188 -21 -120 -34 -168
-46 -177 -11 -8 -47 -13 -90 -13 l-72 0 13 67 c7 38 23 128 36 201 l22 132 89
0 c87 0 88 0 83 -22z"/>
</g>
</svg>
